<?xml version="1.0" encoding="utf-8"?>
<!-- Generator: Adobe Illustrator 16.0.0, SVG Export Plug-In . SVG Version: 6.00 Build 0)  -->
<!DOCTYPE svg PUBLIC "-//W3C//DTD SVG 1.1//EN" "http://www.w3.org/Graphics/SVG/1.1/DTD/svg11.dtd">
<svg version="1.1" id="圖層_1" xmlns="http://www.w3.org/2000/svg" xmlns:xlink="http://www.w3.org/1999/xlink" x="0px" y="0px"
	 width="1690px" height="223.236px" viewBox="0 138.511 1690 223.236" enable-background="new 0 138.511 1690 223.236"
	 xml:space="preserve">
<g>
	<g>
		<path fill="#1A1A1A" d="M258.037,193.159c-0.516-1.804-1.289-3.608-1.805-5.413c0-0.258,0-0.516,0.258-0.773
			c1.289-1.289,1.031-3.093-0.258-4.382c-0.258-0.258-0.258-0.516-0.258-0.773c0-11.343,0-22.685,0-34.027
			c3.351-1.031,2.836-3.608-1.546-4.382c-13.663-2.063-33.769-4.897-45.627-4.897s-31.965,2.835-45.627,4.897
			c-5.156,0.773-5.156,4.124,0,4.897c2.835,0.516,6.187,1.031,9.538,1.547v16.756c0,1.805,1.805,3.351,3.609,2.835
			c5.414-1.546,16.756-3.866,32.48-3.866c15.209,0,26.809,2.32,32.48,3.866c1.805,0.516,3.609-1.03,3.609-2.835v-17.014
			c2.835-0.516,5.671-0.773,8.249-1.289c0,11.085,0,22.169,0,33.512v0.258c0,0.258,0,0.258-0.258,0.516
			c-1.547,1.289-1.547,3.093-0.258,4.382c0.258,0.258,0.258,0.258,0.258,0.516c-0.516,1.805-1.031,3.609-1.804,5.413
			c-0.258,0.516,0,1.031,0.257,1.547l0.258,0.258c1.031,1.031,2.32,1.031,3.867,0.773c1.031-0.258,2.063-0.516,2.578-1.547
			C258.295,193.675,258.295,193.417,258.037,193.159z"/>
		<path fill="#1A1A1A" d="M237.672,171.506h-57.485c-3.867,0-7.218,3.094-7.218,7.218v132.24l-42.018-167.813
			c-1.031-2.836-3.867-4.64-6.702-4.64H92.8H61.352c-3.093,0-5.671,1.804-6.702,4.64L0.516,351.694
			c-1.805,4.897,1.546,10.054,6.702,10.054h37.894h15.982v-87.387v-5.672v-25.52c0.258-0.258,0.516-0.516,0.773-0.773
			c1.804-2.836,5.155-4.641,9.022-4.641s7.218,1.805,9.022,4.641c0.773,1.289,3.093,1.289,4.125,0
			c1.804-2.836,5.155-4.641,9.022-4.641s7.218,1.805,9.022,4.641c0.773,1.289,3.093,1.289,4.125,0
			c1.804-2.836,5.155-4.641,9.022-4.641c3.866,0,7.218,1.805,9.022,4.641c0.258,0.258,0.516,0.516,0.773,0.773v14.178v5.671v98.472
			h53.875c0.258,0,0.258,0,0.516,0l0,0h1.289h6.702V183.622c1.547-1.805,3.867-2.836,6.444-2.836c2.578,0,4.898,1.031,6.445,2.836
			v0.258V361.49h0.773h2.062V183.622c1.547-1.805,3.867-2.836,6.444-2.836c2.578,0,4.898,1.031,6.445,2.836V361.49h2.062h0.773
			V184.137v-0.257c1.547-1.805,3.867-2.836,6.444-2.836c2.578,0,4.898,1.031,6.445,2.836v177.867h5.413h1.289
			c3.867,0,7.218-3.094,7.218-7.218V178.724C244.89,174.858,241.539,171.506,237.672,171.506z M114.712,233.115
			c-4.125,0-8.249,1.547-10.827,4.382c-2.835-2.835-6.702-4.382-10.827-4.382s-8.249,1.547-10.827,4.382
			c-2.835-2.835-6.702-4.382-10.827-4.382c-2.062,0-3.867,0.258-5.671,1.031l23.2-34.027c1.805-2.577,6.96-2.577,8.507,0
			l23.2,34.027C118.579,233.373,116.516,233.115,114.712,233.115z"/>
		<rect x="94.347" y="281.063" fill="#1A1A1A" width="13.662" height="15.982"/>
		<path fill="#1A1A1A" d="M77.591,277.196v0.773h13.663v-15.982C83.521,262.76,77.591,269.204,77.591,277.196z"/>
		<path fill="#1A1A1A" d="M94.347,261.987v15.982h13.662v-0.773C108.009,269.204,101.823,262.76,94.347,261.987z"/>
		<rect x="77.591" y="281.063" fill="#1A1A1A" width="13.663" height="15.982"/>
	</g>
	<g>
		<path fill="#1A1A1A" d="M407.549,208.884c15.467,11.858,34.027,28.871,42.018,41.245l-11.857,9.795
			c-2.32-3.866-5.671-8.248-9.796-12.889c-40.729,1.805-83.778,3.352-110.329,4.125c-0.258,1.546-1.547,2.062-2.836,2.319
			l-4.897-16.24l25.262-0.772c9.28-13.405,19.849-32.48,25.778-47.174l17.529,6.702c-0.516,1.289-2.063,1.547-3.867,1.547
			c-5.929,11.6-14.693,26.293-22.942,38.409c20.107-0.516,42.534-1.289,64.703-1.805c-6.444-6.187-12.889-12.116-19.333-17.014
			L407.549,208.884z M332.02,328.493v-63.671h95.378v62.897h-14.436v-5.155h-66.765v5.671H332.02V328.493z M412.962,278.227h-66.765
			v30.934h66.765V278.227z"/>
		<path fill="#1A1A1A" d="M494.678,231.569c7.733,3.609,17.529,9.796,21.912,14.436l-7.991,10.827
			c-4.383-4.641-13.921-11.601-21.653-15.725L494.678,231.569z M498.029,192.386c7.476,4.125,16.756,10.569,21.396,15.467
			l-8.507,10.569c-4.124-5.155-13.404-12.115-20.88-16.756L498.029,192.386z M490.038,319.471
			c5.671-11.6,13.146-30.675,18.818-47.688L519.94,279c-4.64,15.725-11.342,32.995-15.982,44.338
			c0.773,0.773,1.289,1.805,1.289,2.577c0,0.516-0.258,1.289-0.516,1.805L490.038,319.471z M533.345,265.338V244.2
			c-0.516,0.257-0.773,0.257-1.288,0.257c-1.547,6.703-4.383,14.437-7.734,19.334c-1.546-1.547-4.64-3.609-6.702-4.64
			c2.836-4.641,5.156-11.858,6.444-19.076l9.022,2.578v-6.702l-9.022,0.516c-0.257,1.03-1.288,1.546-2.062,1.804l-3.094-10.826
			l7.733-0.258c1.547-2.063,3.352-4.383,4.898-6.702c-3.094-3.609-7.477-7.476-11.343-10.312l4.897-6.96l1.805,1.289
			c2.836-4.641,5.671-10.569,6.96-14.693l10.054,4.897c-0.516,0.773-1.547,1.289-3.094,1.289c-1.805,3.608-4.897,8.765-7.733,13.404
			c1.289,1.031,2.578,2.32,3.609,3.352c2.577-3.609,4.64-7.476,6.444-10.569l8.765,4.897v-2.319h35.831v3.866l3.867-5.671
			l2.062,1.289c2.836-4.641,5.671-10.569,7.476-14.693l9.796,5.155c-0.516,0.773-1.547,1.289-2.836,1.289
			c-2.319,3.608-5.413,8.765-8.249,13.146c1.547,1.289,2.836,2.578,4.125,3.867c2.836-3.867,5.671-7.991,7.476-11.343l9.796,5.671
			c-0.516,1.031-1.805,1.289-3.352,1.031c-3.609,5.414-9.28,12.632-14.693,18.561l10.568-0.258
			c-0.772-1.805-1.804-3.609-2.577-4.898l6.96-3.093c3.352,4.897,6.444,11.857,7.476,16.498l-7.476,3.351l-1.289-4.124l-6.702,0.516
			v30.16h-9.28v-21.653c-0.516,0.258-1.289,0.516-2.319,0.516c-1.547,6.444-4.125,14.436-7.476,19.075
			c-1.547-1.289-4.641-3.608-6.445-4.64c2.836-4.383,4.898-11.601,6.445-18.818l10.053,2.836v-7.218
			c-3.866,0.258-7.218,0.516-10.053,0.516c-0.258,1.031-1.289,1.546-2.32,1.804l-2.836-10.826l7.476-0.258l5.414-6.444
			c-3.094-3.352-6.96-6.96-10.827-10.054v2.32h-35.831v-4.383c-0.516,0.258-1.289,0.258-2.063,0.258
			c-3.352,5.156-8.507,12.116-13.662,18.045l9.28-0.258l-2.32-5.155l6.444-2.578c2.578,5.155,4.897,11.857,5.929,16.498l-6.96,2.577
			c-0.258-1.03-0.516-2.319-0.773-3.608l-5.929,0.516v30.16h-8.765V265.338z M608.358,299.365l2.836-0.516l7.991,2.32
			c-0.258,1.031-0.516,2.319-1.289,2.835c-4.64,23.716-9.795,24.231-26.035,24.231c-4.125,0-9.538-0.258-14.951-0.516
			c-0.258-3.351-1.547-7.476-3.609-10.568c8.249,0.773,16.756,0.773,20.106,0.773c5.672,0,7.733,0,10.312-10.054h-62.383
			l-1.289,4.124l-12.631-1.804c2.578-7.218,5.413-17.787,7.476-26.294h63.414v-6.187h-69.601v-8.765h82.489v23.974h-65.476
			l-1.547,6.444H608.358z M551.39,240.333c1.547,4.897,3.351,11.6,3.866,15.725l-7.476,2.063c-0.515-4.383-2.062-11.085-3.608-16.24
			L551.39,240.333z M584.9,217.649v7.218h-28.098v-7.218H584.9z M556.803,236.467v-7.219H584.9v7.219H556.803z M556.803,263.276
			v-22.169h28.355v22.169H556.803z M583.87,193.417v7.218h-26.036v-7.218H583.87z M565.31,247.809v8.507h10.827v-8.507H565.31z
			 M618.412,261.729c-0.773-5.155-3.352-13.404-5.671-19.591l7.476-2.063c2.578,5.929,4.897,13.92,5.929,19.076L618.412,261.729z"/>
		<path fill="#1A1A1A" d="M743.693,195.738c-0.258,1.547-1.547,2.32-3.609,2.578l-0.516,5.413
			c1.547,22.169,10.826,86.098,65.733,111.36c-4.382,3.351-8.507,7.991-10.568,11.857c-36.347-17.528-53.36-52.071-61.352-80.942
			c-6.96,28.099-22.685,60.578-57.743,80.942c-2.577-3.608-6.96-7.733-11.6-10.826c60.578-31.965,59.547-102.08,60.578-121.672
			L743.693,195.738z"/>
		<path fill="#1A1A1A" d="M918.467,303.489h59.289v13.921H844.742v-13.921h58.516v-82.746H851.96v-14.179h118.836v14.179h-52.587
			v82.746H918.467z"/>
		<path fill="#1A1A1A" d="M1061.276,238.529c5.93,2.836,22.685,12.89,26.81,15.725l-9.796,9.28
			c-4.64-3.867-14.436-10.827-21.653-15.982c-5.413,8.249-14.178,16.498-28.871,22.942c-1.805-2.836-5.929-7.218-8.765-9.538
			c17.529-6.702,25.263-15.467,28.871-23.716h-27.324v-11.084h30.16c0.258-1.547,0.258-3.352,0.258-4.64v-7.476h-10.827
			c-2.577,4.64-5.413,8.764-8.507,12.115c-2.319-2.063-6.96-4.64-10.311-6.444c6.702-6.96,12.373-18.561,15.467-30.16l14.693,3.866
			c-0.258,1.031-1.289,1.547-3.094,1.547c-0.773,2.578-1.805,5.155-2.835,7.733h39.439v11.343h-20.88v7.732
			c0,1.547,0,2.836-0.258,4.641h24.489v11.342h-26.81L1061.276,238.529z M1043.232,328.493v-62.382h90.996v61.866h-14.436v-5.155
			h-62.898v5.413h-13.662V328.493z M1119.793,277.453h-62.898v11.601h62.641v-11.601H1119.793z M1056.895,311.738h62.641v-12.115
			h-62.641V311.738z M1094.53,202.44h55.165v57.742h-13.92v-6.444h-28.356v6.96h-13.146V202.44H1094.53z M1107.677,241.88h28.356
			v-27.067h-28.356V241.88z"/>
		<path fill="#1A1A1A" d="M1228.833,297.56c-3.866,11.343-9.796,21.911-21.653,27.841l-10.826-8.249
			c10.568-4.898,17.271-13.921,20.622-23.974L1228.833,297.56z M1223.936,238.529c-7.218,0.516-13.92,1.031-19.076,1.289
			c-0.258,1.289-1.031,1.805-2.062,2.063l-3.609-11.343l25.005-1.289v-6.702h-18.818v-8.764h18.818v-5.672h-23.2v-8.765h23.2v-9.279
			l16.498,1.031c-0.258,1.288-1.031,1.804-3.352,2.319v6.187h22.169v8.507h-22.169v5.93h18.045v8.764h-18.045v5.93l22.685-1.289
			l-0.258,7.991c-7.476,0.516-15.209,1.288-22.427,1.804v6.188h-12.889v-4.898H1223.936z M1313.385,246.52v40.472h-46.658
			c5.929,3.351,11.601,7.476,14.693,11.084l-9.537,8.507c-4.383-4.897-13.663-11.857-21.912-15.725l4.383-3.608h-42.533v-8.765
			h87.902v-6.96h-82.489v-8.507h82.489v-6.96h-86.872v-9.022h100.534V246.52z M1249.455,309.934c0,3.608,1.289,4.382,8.507,4.382
			h22.942c5.672,0,6.702-1.547,7.218-11.6c2.836,2.062,8.507,3.866,12.374,4.64c-1.547,15.467-5.672,19.075-18.045,19.075h-25.778
			c-16.755,0-20.88-3.608-20.88-16.239v-17.014l17.271,1.031c-0.258,1.289-1.289,2.063-3.609,2.32V309.934L1249.455,309.934z
			 M1289.927,243.427v-5.672h-24.747v-8.764h24.747v-5.93h-17.786v-8.765h17.786v-6.187h-22.685v-8.765h22.685v-9.279l16.498,1.031
			c-0.258,1.288-1.031,1.804-3.352,2.319v6.187h25.005v8.507h-25.005v5.93h20.107v8.764h-20.107v5.93h28.872v8.764h-28.872v5.672
			h-13.146V243.427z M1322.665,325.143c-4.641-7.991-15.467-19.076-25.778-26.294l10.827-6.702
			c10.311,6.96,21.653,17.529,26.809,25.778L1322.665,325.143z"/>
		<path fill="#1A1A1A" d="M1507.75,288.538v11.342h-58.516v14.693c0,12.631-5.413,13.92-31.707,13.92
			c-0.773-3.608-2.577-8.507-4.64-11.857c8.507,0.258,17.014,0.258,19.333,0.258c2.578-0.258,3.094-0.773,3.094-2.578V299.88
			h-58.258v-11.342h58.258v-7.733l8.249,0.258c4.64-2.32,9.538-5.156,13.662-7.991h-53.876V262.76h67.538l2.063-0.773l10.312,6.702
			c-0.516,0.773-1.805,1.289-3.094,1.547c-7.733,5.929-19.591,13.146-30.676,18.561h58.258V288.538z M1391.75,253.995v18.303
			h-13.405v-28.613h11.601l-2.836-46.916l9.022,2.063c6.96-2.32,14.693-5.414,19.591-7.476l8.249,9.021
			c-0.516,0.516-1.288,0.773-1.804,0.773s-0.773-0.258-1.289-0.258c-4.898,1.805-13.404,4.125-20.107,5.929l0.258,4.898h20.881
			v9.022h-20.623l0.516,6.96h20.623v9.021h-20.107l0.516,6.961h79.396l0.773-6.961h-20.107v-9.021h20.88l0.516-6.96h-20.88v-9.022
			h21.653l0.258-6.96h-22.427v-9.022h36.089c-0.772,15.467-2.062,34.542-3.351,48.205h11.6v28.871h-13.92v-18.303H1391.75V253.995z
			 M1459.803,195.48c-0.257,0.773-1.288,1.289-2.835,1.289c-1.805,2.319-3.866,4.382-6.444,6.444
			c3.094,2.32,5.671,4.382,7.733,6.187l-6.96,6.187c-1.805-1.804-4.641-4.382-7.991-6.702c-4.383,3.094-9.022,5.929-13.404,7.991
			c-1.547-1.805-4.898-4.64-6.96-6.187c4.382-1.805,8.506-4.382,12.631-6.96c-3.094-1.805-5.929-3.867-9.022-5.413l6.702-5.672
			c3.094,1.547,6.444,3.352,9.538,5.156c2.32-2.063,4.382-4.383,6.187-6.444L1459.803,195.48z M1461.092,220.227
			c-0.516,1.031-1.546,1.546-3.093,1.289c-1.805,2.319-4.383,4.64-6.96,6.96c3.351,2.319,6.187,4.64,8.249,6.702l-6.96,6.444
			c-2.063-2.32-4.898-4.641-8.507-7.218c-4.641,3.351-9.538,6.444-13.921,8.507c-1.546-1.805-4.897-4.641-6.96-6.444
			c4.383-1.805,9.022-4.641,13.405-7.733c-2.836-1.805-5.93-3.609-9.022-5.414l6.702-5.671c2.835,1.547,6.187,3.352,9.279,5.413
			c2.578-2.319,4.898-4.64,6.703-7.218L1461.092,220.227z"/>
		<path fill="#1A1A1A" d="M1586.115,244.2c4.382,5.413,16.498,23.457,19.075,27.84l-7.733,10.568
			c-2.319-4.897-6.96-13.662-11.342-21.138v67.022h-12.889v-64.444c-4.641,14.693-10.827,28.355-17.014,37.12
			c-1.289-3.867-4.383-9.28-6.702-12.631c9.28-12.374,18.044-34.801,22.685-54.134h-19.592v-12.889h20.623v-31.191l16.498,0.773
			c-0.258,1.288-1.031,2.062-3.352,2.319v28.099h17.529v12.889h-17.529v9.796H1586.115z M1665.511,227.187
			c9.538,9.538,19.849,22.685,24.231,31.707l-11.857,6.702c-1.031-2.32-2.32-4.641-4.125-7.476
			c-0.516,1.288-1.547,1.804-3.351,1.804c-3.609,11.601-9.022,22.942-16.498,32.996c9.796,10.311,21.911,18.56,36.089,23.458
			c-3.352,2.835-7.733,8.507-9.795,12.373c-13.662-5.671-25.263-14.436-35.316-25.263c-10.311,10.569-22.942,19.334-39.183,25.263
			c-1.546-3.351-4.897-8.507-7.218-11.084c15.982-5.672,28.355-14.179,38.151-24.747c-7.218-10.312-13.146-21.911-17.786-34.542
			l12.115-3.352c3.609,9.796,8.249,18.818,14.178,27.066c5.672-8.506,9.538-18.044,12.373-27.84l16.24,3.609
			c-4.897-7.991-12.373-17.529-19.076-24.747L1665.511,227.187z M1638.444,233.631c-0.516,0.773-1.547,1.547-3.351,1.289
			c-5.414,10.568-14.694,23.2-24.489,31.707c-2.063-2.578-6.702-6.703-9.538-8.765c9.022-7.476,17.787-19.592,22.685-30.16
			L1638.444,233.631z M1687.68,211.72v12.889h-82.746V211.72h33.769v-21.396l17.271,0.773c-0.257,1.288-1.03,2.062-3.351,2.577
			v18.045H1687.68L1687.68,211.72z"/>
	</g>
</g>
</svg>
