<svg xmlns="http://www.w3.org/2000/svg" width="1690" height="223.236" viewBox="0 138.511 1690 223.236"><g fill="#1A1A1A"><path d="M258.037 193.159c-.516-1.804-1.289-3.608-1.805-5.413 0-.258 0-.516.258-.773 1.289-1.289 1.031-3.093-.258-4.382-.258-.258-.258-.516-.258-.773v-34.027c3.351-1.031 2.836-3.608-1.546-4.382-13.663-2.063-33.769-4.897-45.627-4.897s-31.965 2.835-45.627 4.897c-5.156.773-5.156 4.124 0 4.897 2.835.516 6.187 1.031 9.538 1.547v16.756c0 1.805 1.805 3.351 3.609 2.835 5.414-1.546 16.756-3.866 32.48-3.866 15.209 0 26.809 2.32 32.48 3.866 1.805.516 3.609-1.03 3.609-2.835v-17.014c2.835-.516 5.671-.773 8.249-1.289v33.77c0 .258 0 .258-.258.516-1.547 1.289-1.547 3.093-.258 4.382.258.258.258.258.258.516-.516 1.805-1.031 3.609-1.804 5.413-.258.516 0 1.031.257 1.547l.258.258c1.031 1.031 2.32 1.031 3.867.773 1.031-.258 2.063-.516 2.578-1.547.258-.259.258-.517 0-.775z"/><path d="M237.672 171.506h-57.485c-3.867 0-7.218 3.094-7.218 7.218v132.24l-42.018-167.813c-1.031-2.836-3.867-4.64-6.702-4.64H61.352c-3.093 0-5.671 1.804-6.702 4.64L.516 351.694c-1.805 4.897 1.546 10.054 6.702 10.054h53.876V243.169l.773-.773c1.804-2.836 5.155-4.641 9.022-4.641s7.218 1.805 9.022 4.641c.773 1.289 3.093 1.289 4.125 0 1.804-2.836 5.155-4.641 9.022-4.641s7.218 1.805 9.022 4.641c.773 1.289 3.093 1.289 4.125 0 1.804-2.836 5.155-4.641 9.022-4.641 3.866 0 7.218 1.805 9.022 4.641l.773.773V361.49h62.382V183.622c1.547-1.805 3.867-2.836 6.444-2.836 2.578 0 4.898 1.031 6.445 2.836V361.49h2.835V183.622c1.547-1.805 3.867-2.836 6.444-2.836 2.578 0 4.898 1.031 6.445 2.836V361.49h2.835V183.88c1.547-1.805 3.867-2.836 6.444-2.836 2.578 0 4.898 1.031 6.445 2.836v177.867h6.702c3.867 0 7.218-3.094 7.218-7.218V178.724c-.771-3.866-4.122-7.218-7.989-7.218zm-122.96 61.609c-4.125 0-8.249 1.547-10.827 4.382-2.835-2.835-6.702-4.382-10.827-4.382s-8.249 1.547-10.827 4.382c-2.835-2.835-6.702-4.382-10.827-4.382-2.062 0-3.867.258-5.671 1.031l23.2-34.027c1.805-2.577 6.96-2.577 8.507 0l23.2 34.027c-2.061-.773-4.124-1.031-5.928-1.031z"/><path d="M94.347 281.063h13.662v15.982H94.347zm-16.756-3.867v.773h13.663v-15.982c-7.733.773-13.663 7.217-13.663 15.209zm16.756-15.209v15.982h13.662v-.773c0-7.992-6.186-14.436-13.662-15.209zm-16.756 19.076h13.663v15.982H77.591zm329.958-72.179c15.467 11.858 34.027 28.871 42.018 41.245l-11.857 9.795c-2.32-3.866-5.671-8.248-9.796-12.889-40.729 1.805-83.778 3.352-110.329 4.125-.258 1.546-1.547 2.062-2.836 2.319l-4.897-16.24 25.262-.772c9.28-13.405 19.849-32.48 25.778-47.174l17.529 6.702c-.516 1.289-2.063 1.547-3.867 1.547-5.929 11.6-14.693 26.293-22.942 38.409 20.107-.516 42.534-1.289 64.703-1.805-6.444-6.187-12.889-12.116-19.333-17.014l10.567-8.248zM332.02 328.493v-63.671h95.378v62.897h-14.436v-5.155h-66.765v5.671H332.02v.258zm80.942-50.266h-66.765v30.934h66.765v-30.934zm81.716-46.658c7.733 3.609 17.529 9.796 21.912 14.436l-7.991 10.827c-4.383-4.641-13.921-11.601-21.653-15.725l7.732-9.538zm3.351-39.183c7.476 4.125 16.756 10.569 21.396 15.467l-8.507 10.569c-4.124-5.155-13.404-12.115-20.88-16.756l7.991-9.28zm-7.991 127.085c5.671-11.6 13.146-30.675 18.818-47.688L519.94 279c-4.64 15.725-11.342 32.995-15.982 44.338.773.773 1.289 1.805 1.289 2.577 0 .516-.258 1.289-.516 1.805l-14.693-8.249zm43.307-54.133V244.2c-.516.257-.773.257-1.288.257-1.547 6.703-4.383 14.437-7.734 19.334-1.546-1.547-4.64-3.609-6.702-4.64 2.836-4.641 5.156-11.858 6.444-19.076l9.022 2.578v-6.702l-9.022.516c-.257 1.03-1.288 1.546-2.062 1.804l-3.094-10.826 7.733-.258c1.547-2.063 3.352-4.383 4.898-6.702-3.094-3.609-7.477-7.476-11.343-10.312l4.897-6.96 1.805 1.289c2.836-4.641 5.671-10.569 6.96-14.693l10.054 4.897c-.516.773-1.547 1.289-3.094 1.289-1.805 3.608-4.897 8.765-7.733 13.404 1.289 1.031 2.578 2.32 3.609 3.352 2.577-3.609 4.64-7.476 6.444-10.569l8.765 4.897v-2.319h35.831v3.866l3.867-5.671 2.062 1.289c2.836-4.641 5.671-10.569 7.476-14.693l9.796 5.155c-.516.773-1.547 1.289-2.836 1.289-2.319 3.608-5.413 8.765-8.249 13.146 1.547 1.289 2.836 2.578 4.125 3.867 2.836-3.867 5.671-7.991 7.476-11.343l9.796 5.671c-.516 1.031-1.805 1.289-3.352 1.031-3.609 5.414-9.28 12.632-14.693 18.561l10.568-.258c-.772-1.805-1.804-3.609-2.577-4.898l6.96-3.093c3.352 4.897 6.444 11.857 7.476 16.498l-7.476 3.351-1.289-4.124-6.702.516v30.16h-9.28v-21.653c-.516.258-1.289.516-2.319.516-1.547 6.444-4.125 14.436-7.476 19.075-1.547-1.289-4.641-3.608-6.445-4.64 2.836-4.383 4.898-11.601 6.445-18.818l10.053 2.836v-7.218c-3.866.258-7.218.516-10.053.516-.258 1.031-1.289 1.546-2.32 1.804l-2.836-10.826 7.476-.258 5.414-6.444c-3.094-3.352-6.96-6.96-10.827-10.054v2.32h-35.831v-4.383c-.516.258-1.289.258-2.063.258-3.352 5.156-8.507 12.116-13.662 18.045l9.28-.258-2.32-5.155 6.444-2.578c2.578 5.155 4.897 11.857 5.929 16.498l-6.96 2.577c-.258-1.03-.516-2.319-.773-3.608l-5.929.516v30.16h-8.765v1.03zm75.013 34.027l2.836-.516 7.991 2.32c-.258 1.031-.516 2.319-1.289 2.835-4.64 23.716-9.795 24.231-26.035 24.231-4.125 0-9.538-.258-14.951-.516-.258-3.351-1.547-7.476-3.609-10.568 8.249.773 16.756.773 20.106.773 5.672 0 7.733 0 10.312-10.054h-62.383l-1.289 4.124-12.631-1.804c2.578-7.218 5.413-17.787 7.476-26.294h63.414v-6.187h-69.601v-8.765h82.489v23.974h-65.476l-1.547 6.444h64.187zm-56.968-59.032c1.547 4.897 3.351 11.6 3.866 15.725l-7.476 2.063c-.515-4.383-2.062-11.085-3.608-16.24l7.218-1.548zm33.51-22.684v7.218h-28.098v-7.218H584.9zm-28.097 18.818v-7.219H584.9v7.219h-28.097zm0 26.809v-22.169h28.355v22.169h-28.355zm27.067-69.859v7.218h-26.036v-7.218h26.036zm-18.56 54.392v8.507h10.827v-8.507H565.31zm53.102 13.92c-.773-5.155-3.352-13.404-5.671-19.591l7.476-2.063c2.578 5.929 4.897 13.92 5.929 19.076l-7.734 2.578zm125.281-65.991c-.258 1.547-1.547 2.32-3.609 2.578l-.516 5.413c1.547 22.169 10.826 86.098 65.733 111.36-4.382 3.351-8.507 7.991-10.568 11.857-36.347-17.528-53.36-52.071-61.352-80.942-6.96 28.099-22.685 60.578-57.743 80.942-2.577-3.608-6.96-7.733-11.6-10.826 60.578-31.965 59.547-102.08 60.578-121.672l19.077 1.29zm174.774 107.751h59.289v13.921H844.742v-13.921h58.516v-82.746H851.96v-14.179h118.836v14.179h-52.587v82.746h.258zm142.809-64.96c5.93 2.836 22.685 12.89 26.81 15.725l-9.796 9.28c-4.64-3.867-14.436-10.827-21.653-15.982-5.413 8.249-14.178 16.498-28.871 22.942-1.805-2.836-5.929-7.218-8.765-9.538 17.529-6.702 25.263-15.467 28.871-23.716h-27.324v-11.084h30.16c.258-1.547.258-3.352.258-4.64v-7.476h-10.827c-2.577 4.64-5.413 8.764-8.507 12.115-2.319-2.063-6.96-4.64-10.311-6.444 6.702-6.96 12.373-18.561 15.467-30.16l14.693 3.866c-.258 1.031-1.289 1.547-3.094 1.547-.773 2.578-1.805 5.155-2.835 7.733h39.439v11.343h-20.88v7.732c0 1.547 0 2.836-.258 4.641h24.489v11.342h-26.81l-.256.774zm-18.044 89.964v-62.382h90.996v61.866h-14.436v-5.155h-62.898v5.413h-13.662v.258zm76.561-51.04h-62.898v11.601h62.641v-11.601h.257zm-62.898 34.285h62.641v-12.115h-62.641v12.115zm37.635-109.298h55.165v57.742h-13.92v-6.444h-28.356v6.96h-13.146V202.44h.257zm13.147 39.44h28.356v-27.067h-28.356v27.067zm121.156 55.68c-3.866 11.343-9.796 21.911-21.653 27.841l-10.826-8.249c10.568-4.898 17.271-13.921 20.622-23.974l11.857 4.382zm-4.897-59.031c-7.218.516-13.92 1.031-19.076 1.289-.258 1.289-1.031 1.805-2.062 2.063l-3.609-11.343 25.005-1.289v-6.702h-18.818v-8.764h18.818v-5.672h-23.2v-8.765h23.2v-9.279l16.498 1.031c-.258 1.288-1.031 1.804-3.352 2.319v6.187h22.169v8.507h-22.169v5.93h18.045v8.764h-18.045v5.93l22.685-1.289-.258 7.991c-7.476.516-15.209 1.288-22.427 1.804v6.188h-12.889v-4.898h-.515zm89.449 7.991v40.472h-46.658c5.929 3.351 11.601 7.476 14.693 11.084l-9.537 8.507c-4.383-4.897-13.663-11.857-21.912-15.725l4.383-3.608h-42.533v-8.765h87.902v-6.96h-82.489v-8.507h82.489v-6.96h-86.872v-9.022h100.534v-.516zm-63.93 63.414c0 3.608 1.289 4.382 8.507 4.382h22.942c5.672 0 6.702-1.547 7.218-11.6 2.836 2.062 8.507 3.866 12.374 4.64-1.547 15.467-5.672 19.075-18.045 19.075h-25.778c-16.755 0-20.88-3.608-20.88-16.239v-17.014l17.271 1.031c-.258 1.289-1.289 2.063-3.609 2.32v13.405zm40.472-66.507v-5.672h-24.747v-8.764h24.747v-5.93h-17.786v-8.765h17.786v-6.187h-22.685v-8.765h22.685v-9.279l16.498 1.031c-.258 1.288-1.031 1.804-3.352 2.319v6.187h25.005v8.507h-25.005v5.93h20.107v8.764h-20.107v5.93h28.872v8.764h-28.872v5.672h-13.146v.258zm32.738 81.716c-4.641-7.991-15.467-19.076-25.778-26.294l10.827-6.702c10.311 6.96 21.653 17.529 26.809 25.778l-11.858 7.218zm185.085-36.605v11.342h-58.516v14.693c0 12.631-5.413 13.92-31.707 13.92-.773-3.608-2.577-8.507-4.64-11.857 8.507.258 17.014.258 19.333.258 2.578-.258 3.094-.773 3.094-2.578V299.88h-58.258v-11.342h58.258v-7.733l8.249.258c4.64-2.32 9.538-5.156 13.662-7.991h-53.876V262.76h67.538l2.063-.773 10.312 6.702c-.516.773-1.805 1.289-3.094 1.547-7.733 5.929-19.591 13.146-30.676 18.561h58.258v-.259zm-116-34.543v18.303h-13.405v-28.613h11.601l-2.836-46.916 9.022 2.063c6.96-2.32 14.693-5.414 19.591-7.476l8.249 9.021c-.516.516-1.288.773-1.804.773s-.773-.258-1.289-.258c-4.898 1.805-13.404 4.125-20.107 5.929l.258 4.898h20.881v9.022h-20.623l.516 6.96h20.623v9.021h-20.107l.516 6.961h79.396l.773-6.961h-20.107v-9.021h20.88l.516-6.96h-20.88v-9.022h21.653l.258-6.96h-22.427v-9.022h36.089c-.772 15.467-2.062 34.542-3.351 48.205h11.6v28.871h-13.92V254.51H1391.75v-.515zm68.053-58.515c-.257.773-1.288 1.289-2.835 1.289-1.805 2.319-3.866 4.382-6.444 6.444 3.094 2.32 5.671 4.382 7.733 6.187l-6.96 6.187c-1.805-1.804-4.641-4.382-7.991-6.702-4.383 3.094-9.022 5.929-13.404 7.991-1.547-1.805-4.898-4.64-6.96-6.187 4.382-1.805 8.506-4.382 12.631-6.96-3.094-1.805-5.929-3.867-9.022-5.413l6.702-5.672a173.357 173.357 0 019.538 5.156c2.32-2.063 4.382-4.383 6.187-6.444l10.825 4.124zm1.289 24.747c-.516 1.031-1.546 1.546-3.093 1.289-1.805 2.319-4.383 4.64-6.96 6.96 3.351 2.319 6.187 4.64 8.249 6.702l-6.96 6.444c-2.063-2.32-4.898-4.641-8.507-7.218-4.641 3.351-9.538 6.444-13.921 8.507-1.546-1.805-4.897-4.641-6.96-6.444 4.383-1.805 9.022-4.641 13.405-7.733-2.836-1.805-5.93-3.609-9.022-5.414l6.702-5.671c2.835 1.547 6.187 3.352 9.279 5.413 2.578-2.319 4.898-4.64 6.703-7.218l11.085 4.383zm125.023 23.973c4.382 5.413 16.498 23.457 19.075 27.84l-7.733 10.568c-2.319-4.897-6.96-13.662-11.342-21.138v67.022h-12.889v-64.444c-4.641 14.693-10.827 28.355-17.014 37.12-1.289-3.867-4.383-9.28-6.702-12.631 9.28-12.374 18.044-34.801 22.685-54.134h-19.592v-12.889h20.623v-31.191l16.498.773c-.258 1.288-1.031 2.062-3.352 2.319v28.099h17.529v12.889h-17.529v9.796h-.257zm79.396-17.013c9.538 9.538 19.849 22.685 24.231 31.707l-11.857 6.702c-1.031-2.32-2.32-4.641-4.125-7.476-.516 1.288-1.547 1.804-3.351 1.804-3.609 11.601-9.022 22.942-16.498 32.996 9.796 10.311 21.911 18.56 36.089 23.458-3.352 2.835-7.733 8.507-9.795 12.373-13.662-5.671-25.263-14.436-35.316-25.263-10.311 10.569-22.942 19.334-39.183 25.263-1.546-3.351-4.897-8.507-7.218-11.084 15.982-5.672 28.355-14.179 38.151-24.747-7.218-10.312-13.146-21.911-17.786-34.542l12.115-3.352c3.609 9.796 8.249 18.818 14.178 27.066 5.672-8.506 9.538-18.044 12.373-27.84l16.24 3.609c-4.897-7.991-12.373-17.529-19.076-24.747l10.828-5.927zm-27.067 6.444c-.516.773-1.547 1.547-3.351 1.289-5.414 10.568-14.694 23.2-24.489 31.707-2.063-2.578-6.702-6.703-9.538-8.765 9.022-7.476 17.787-19.592 22.685-30.16l14.693 5.929zm49.236-21.911v12.889h-82.746V211.72h33.769v-21.396l17.271.773c-.257 1.288-1.03 2.062-3.351 2.577v18.045h35.057v.001z"/></g></svg>