<svg width="309" height="297" viewBox="0 0 309 297" xmlns="http://www.w3.org/2000/svg"><g fill="none"><path d="M203.2 118.8v-2.4l-7.9-4.8-84-49.1c-3.3-1.9-7.3-1.9-10.6 0L6.2 117.7C3 119.6 1 123 1 126.8l.2 110.6c0 3.7 2 7.2 5.2 9l83.6 49c7 4.1 15.8-.9 15.8-9l.4-98.6c0-3.7 2-7.2 5.2-9l83.8-49s2.6-1.5 5-.8 3 2.6 3 5.2v-15.4z" fill="#C7DBF4"/><path d="M306.3 177.3c1-1.5 1.5-3.3 1.5-5.2l.2-111.4c0-3.5-1.8-6.7-4.9-8.5L217.8 2.3c-6.5-3.8-14.8.9-14.8 8.5l.1 106.3 103.2 60.2z" fill="#365ABD"/><path d="M207 229.6c-3.6-2.4-3.7-7-3.7-7l-.3-106.2 104.6 61.4-90.7 53.2c-4.8 2.1-9.9-1.4-9.9-1.4z" fill="#A3D00D"/><path d="M4.7 245.2l.8.6c.2.1.3.3.5.4l84.5 49.5c.1.1.2.1.4.2 1.3.6 6.1 2.2 10.1-.7 0 0 3.9-2.5 4.6-6.7 0-.2.2-.5.1-1.1l.5-99.9s.1-2.8 1.2-4.4L2.5 121.2l-.1.2c-1.1 2-1.6 4.3-1.5 6.5v108.6c.3.1-.3 5.4 3.8 8.7z" fill="#95B4E6"/></g></svg>